<svg xmlns="http://www.w3.org/2000/svg" width="666.53" height="446.83" viewBox="0 0 666.53 446.83">
  <defs>
    <style>
      .cls-1 {
        fill: #231f20;
      }

      .cls-2 {
        fill: #fff;
      }
    </style>
  </defs>
  <title>KP_logo_horiz</title>
  <g id="Layer_2" data-name="Layer 2">
    <g id="Layer_1-2" data-name="Layer 1">
      <g>
        <path class="cls-1" d="M258.73,131.84c-6.73-1.74-14.26-1-20.55-4.07-.81.19-.73.67-1.3.95-1.61-1.33-3.73-1-5.33-2.37a63.35,63.35,0,0,1,7.31-14.92c.41-.28.65,0,1.06-.24-1.42-3.5,5.5-6.67,8.39-5.7.41.72-.24,1.11.37,1.89,3.51-.22,5.14-3.91,7.91-6.05-.66-2.15.6-5.35-2-6.38-1.72,1.14-3.33,2.31-5.08,3.44-.18-.47-.53-.38-.72-.82,3.13-4,3.41-10,8.39-12.8,1.33-3.76,3-7.43,7.67-10.07.49-1.32,1.59-3.16,3.66-3.33,0-4.44,6.52-6.77,8.62-10.55-.27-.54-.56-1.11-.82-1.65,4.45-3.62,6.66-8.8,9.54-12.8.94-1.29,3.47-2.65,2.36-4.74-2.92.23-3.12,3.51-5.67,4.63-.55.25-1.36-.07-2,.13-3.2,1-5,4-7.68,5.92-.92-.39-1.15-2.91-2.26-2.71.12.3.21.6-.24.71,2.9,2.4.51,5.93-3.06,7.46a6.16,6.16,0,0,1-3.54,4.15c-.11-1,.47-.78.82-1.3-.78-1.3-.57-2-1.43-2.84-.44-7,3.46-13.34,5.06-19.42.93-3.5.37-7.53,3.65-9.83a1.75,1.75,0,0,1-.36-1.3,46.53,46.53,0,0,1,10.39-12.92,2.73,2.73,0,0,1,1.3-2.72c-1.51-.94.41-1.78,0-3-.23-.28-.55-.28-.7-.82-1.34.58-2.76,3-4.15,1.78-.28,1.49-1.19,3.5-3.06,3.33-1.21,2.68-3.52,5-2.24,8.52-6.75,10.45-8,22.71-13,33.75,1.15,2.47-.8,4.42-1.29,6.87-.68,3.41,1.69,8.08-2.45,10.42-.54,4.1-2.78,7.62-5.43,11-2.17-.58-5.35,1.84-7.1,0,3.22-1.47,5.05-4.09,6.38-5.59-.82-.28-1.14-2.07-1.78-2.94-1.72,0-3.22-.56-4.14-2.95a24.54,24.54,0,0,1-8.55-8.75,18.17,18.17,0,0,1-5.1-3.66C235.07,52,245.05,46.14,251,39c-4.22,2.87-6.43,6.42-11.46,9-1.21,2-3.4,3.21-5.2,4.39a38.49,38.49,0,0,1-5.55,7.82,5.28,5.28,0,0,1-4.5-1.89c-1,.31-1.24.91-2,1.31-5.8-1.94-14,3.34-19.28-.08-5-.5-8.49,6-12.06,7.83.2-5.79,3.38-12.68,3.51-17.17-2.67,7.53-3.91,15.52-7.18,22.85a115.89,115.89,0,0,0-11.2,15.41c-.48.24-.62-.5-1.18,0-.34.35.58,1.12.12,1.42-3.52,2-7.63,5.49-10.87,7.25.69,6.09-14.7,12.82-15,4.28-1,.65-.79,1.71,0,3-5.67-.7-9.38-7.39-13.87-11.68-1.74.48-1.4,1.64-2.36,2.37,3,7.69,3.85,14.68,2.17,20.82-.15.42-.7.69-1.31,1a1.24,1.24,0,0,1-.58,1.76,2.79,2.79,0,0,1-1.78-1.18c-4.12,2.09-7.5-1.83-10.42-6.6-3.54-5.8-8.44-10-11.38-14.42-4.44-1.88-6.18-11.92-11.85-10-2,6.68,6.28,9.71,8.31,16,.33,1,0,2.12.37,3.08,1.11,2.59,4,3.31,4.86,6.13l-.71.36c3.55,2.67,9.63,9.2,9.14,14.66-.48-.32-.84-1-1.66-.36-.91,1.39.53,3.76,1,5.62l-1.46.73-1.39.2c-2.12-1.31-5-1-5.67-4.53-2,1.67-3,.47-4.62.85-.13.88.2,1.91-.47,2.61a2.67,2.67,0,0,0-2.13.48c-.16,2.31,1.91,6,3.68,7.33.74.16,1.79-.61,2.38,0,5.56,8.68-7.46,8.38-10.06,4.16-1.61.88-2.83.62-4.13.6-.23,2.71,2.39,3.8,3.43,6.26,1.83-1.52,3.72,2.13,2.85,3.32-5,1.49-8.74-1-14.31,2.16.27-.76-.66-.55-1-1.3-1,.27.09,1.78-1.06,1.43a5.48,5.48,0,0,0-.83-2.85c-1.25,1.32-1,2.84-3.29,2.86a26.36,26.36,0,0,1,1.66,3.9c1.83.06,3.82-.45,4.74,2.35-2.48,1.34-4.82,2.25-6-.21-2.33.06-4.18-1.3-6.17-2.23.14-.93,1.22-1.89,2.13-1.08a2.35,2.35,0,0,0,.47,2.12,6.48,6.48,0,0,0,2.49-1c.33-1.46-1.09-1.89-1.2-2.94.57-.81,1.72.56,1.2-.6-2.26-2.39-6-8.12-8.77-4.48-.86,1.15,0,3.11.13,5,.7.68,2.32,1.69,2.13,3.07-6.19.62-11.17-2.4-16.93-3,.33.5.39.91,0,1.18-2.48.31-5.47-.25-7.71,1.2a3.38,3.38,0,0,0,.6,2.36c.92.19,1.88.29,2.38,1.77a9.6,9.6,0,0,1,6.16,2.83,6,6,0,0,1,5.33,1.76c-2-.4-4.11-.29-5.81-1.53-.61.2-.28.7-1.06.84-4-1.35-8.78-.49-12.2-3.65-.65.3-.27.63-.94.48-.25-.84-.72-1-1.07-1.54-2,.37-4,.49-5.2-1.53a1.75,1.75,0,0,1-1.3.35c-7.19-3.12-14.72-5.18-21.8-8.6-.12-.36.19-.59.11-.94-1.18,1.61-1.75.4-3.67,1.54-1.74-2.34-5.75-.7-7.7-4.13-.73.63-.57.32-1.3.95-.57-.28-1-1.05-1.66-.94a29,29,0,0,0,7.58,3.89c1.24.42,2-.07,3.08.82.44.34.51,1.27.83,1.66.85,1,2.64.84,3,2.36.72-.64.57-.33,1.29-1,7,3.9,15.27,3.89,21.67,9.54,1.27-.24,2.16.64,3.68-.34,4.32,2.83,9.61,2.69,14,5.41,7.11-.44,13.18,2.27,18,8.72.74,0,1.16.88,2,.47a21.36,21.36,0,0,0-6.4-6.25c3,.08,5.5,1.63,8.28,2.35-.82-1.67-2.44-1-3.31-2.48a4,4,0,0,1,5,.46c.19,2.87,4,4.06,4.28,6.74a9.22,9.22,0,0,0-2.36,1.78c-1.47-.5-.86-2.26-1.91-3.2-1.12.27-2.11.06-3.42.84,2.1,4.08,6.6,7.82,5,11.71-1.37,0-3.63,0-4.63.84.56,1.69,1.72,1.57,2.49,2.6-2,2.42-8,3.53-8.26,6.52,3.56-.68,7.86-5.08,11.23-3a4.38,4.38,0,0,0,.37,1.89,9.21,9.21,0,0,0,3.2,1.07c.57,1.11,1.28,2.26.59,3-1.88-1-2,1.83-4.36,1.91-.21.46.16,1.1-.49,1.42-2.94,1,.39,4.37-2.35,5.92-4.15,0-8-.88-12.07-1,3.26,2.26,7.73.81,11.36,2-2.29,3.19-7.49,5.4-8.85,8.89,1-.32.63-1.1,1.65-1.43.54.65.4.38.6,1.19.71-.3.41-1.39,1.19-.59.11.23.23.47.35.71-1,1.23-1.61,2.61-3.19,3.67,2.16,1.84,5.6-3.13,8-1.67a1,1,0,0,1,.47-1.43c4.79-1.16,9.71-5.28,13.36-5.83,2.6,3.56-.86,5.28-2.84,6.76-3.42.57-3.51,3.78-5.9,5.34a1.49,1.49,0,0,1,1.77,0A17.31,17.31,0,0,1,81,238.13c4.76-1.84,9.95-5,13-1.8-2.23,1.13-1.12,1.93-4,3.21-1.89-2.49-6-.38-8.52.73l.71,1.41a7,7,0,0,1,8.17-.85c-2.22,3.35-.51,9-5.9,10.66.1.92.85-.2,1,.71-.36.75-1.82,1.11-2.72,1.67.42.79.9,1.62.48,2.13-2.75,1-2.05,4.16-4.85,4.5,0,2-2,4.91,1,6.63,2.15-.05,5.94-2.15,5.9-4.16.77,0,1.17-1.15,1.43-.72.87.75-.26,2.06-.7,3.32-.89,2.49-.95,5-4.61,6.17-1.78-1.73-3.53-1.9-6.16.13-.63,1.64.8,2.83,1.91,3.79.89-.06,1-1.37,1.65-.83.83,1.2-.58.74-1.18,1.18.84,1.87-2.42,2.58-3.43,2.62,1,1.45-.88,1.94-.81,3.07.43.84,1.35.25,2.24-.23-.81-.92-.3-1.42.23-1.9.5.69-.45.91.25,1.66,1.08-.76,1.93-1.59,3-2.37.2.81.76.49.94,1.3-1.44,1.09.62,3.36-1,4.38-1.09.68-1.26-1.38-2.5-.23-.8.48,1,.58.23,1.07-.58.38-.64-.83-1.28-.24.12,1.77-3.41,2.3-2.25,4.38,2.35.32,7.73-7.12,10.29-1.33,1-.67,1.53-.23,2.13.12,1.07,1.86,1.3,3.45.6,4.73a1.37,1.37,0,0,0-1.66-.94c.05.42.89,1.09.38,1.3-.56-.33-1-1-1.78-.58.41,1.88,2.68,3.31,2,4.61-.63.28-.76-.89-1.54-.12.35,1.1-.25,1.9.72,3.19-1.11.43-.92,1.27-1.42,1.9.27.57.75.5,1,1.31-1.13.41-.63,1.36-1.42,1.89s-1-1-1.78-.58c-.49.75.78,1.18.95,1.89-2.3,1.72.77,5.24,1,7.8-1,.91-.78,2.25-.23,3.67-.79.93-.34,3.31-.12,3.91,2.42-5.64-2.22-13.61,4.35-17.87.7-1.55.92-3.25,3.18-4.27.67.17,1.13.92,2.12.11-.51-1.35-1-2.7-.71-3.78a5,5,0,0,1,3.42-.83c.27-1.58,3-1.12,3.08-2.73.93-.23,1.32,1.13,2.38.57a3.16,3.16,0,0,1-.37-2.48c.59,1.6,2.06.27,2.12,1.89,1.44-2.16,3.65-.58,5.46-.36-.68-1.67-.15-2.94-.13-4.38,1,.25,1.73-1.88,3.06-1.54.22,1.06-.57,1.78,0,3,1.9-1.39,3.2,3.65,5.33,3.54.39-.2-.21-.72.11-.95a.67.67,0,0,0,.62.23l1.38,4.13,7.41,1a25.3,25.3,0,0,0,2.92.91c.59,4.13,1.47,8.37,1.8,12.41a1.22,1.22,0,0,1-.82.12c2.65,4.42.28,8.24,2.74,11.95,1-2.31.46-5.1,1.29-7.45-2-2.39-2.76-6.7-2.74-9.59-1.51-2-.85-4.83-.85-7,1.2.56,2.92,2.69,4.15,1.18-1,.16-1.35-1.47-2.11-1.89a1.94,1.94,0,0,1,.91-.66h1.58c1.37,1.12,2.57,2.72,4.48,2.18-.51.43-1.12.82-.71,1.54,1.13-.85,1.56.47,2.26.95,1.33-.67,0-2.22,1.17-3l1-.48c1,.82,1.82,2,2.84,2.71a5.35,5.35,0,0,0,0,2.38c2.81-.16,4.53,3,7.22,3.18-.14-1-.47-2,.47-2.6.61,3.21,5.35,1.39,6.29,3.65.9.06,2-.58,2.59.47,0,1.17.65,2.58,0,3.55-.47-.22-.78-.82-1.31-.83,0,.6.27,1.27-.34,1.66-.25-.66-.6-1-1.19-.59a85.55,85.55,0,0,1,2.64,15.27c-.86.18-.56.74-1,1.06a77.78,77.78,0,0,0,1.46,12.9c-1.41,1.31-.63,3.34-.36,5.2-.47.18-.38.53-.81.72,1.86,4-.83,6.42,1.78,10.64-.51.36-.89.75-.83,1.31,1.62,1.39.69,3.63.48,5.08,1.51,1.67.73,3.8,0,5.33,1.4,4.74-.1,8.51.62,13-.17-.27-.36-.52-.71-.24,2.68,5.62,0,10.5,1.69,15.15.53-.93-.59-2.43.82-3.08-1.08-.76-.68-2.74-.6-4.73.07-1.59.17-3.35,1-4-.57-1.76-1.44-3.63.33-4.61-2.33-7.81-.08-14.1-1.69-21.66,2.13-4.49-2.79-12.36,1.75-15.38.32,1.65,1.28,2.2,2.14,3.67-1.85,1.88,0,5,.61,7.69-1,2.37.59,5.58-.09,8a.64.64,0,0,1,1.06.35c.94,6,2.28,12.19,1.46,17.64,2.94,4.46,1.44,8.46,2.62,11.7.8-.26.77-.8,1.19-1.19-.26-1-.86-1-1.19-1.77,3.22-4.09-1.82-8.57-.5-13.37.45.32-.3,1.15.48.94.3-2.38-1.57-6.55.22-7.8,1.6,2.47.89,5.56,2.32,8.71-.14-.25-.32-.38-.64-.07a14.4,14.4,0,0,1,.36,5.43c2.35,1.09,1.27,4,2.38,5.92-.31-5.23,1.08-9.89-.38-15.5,1.44-.83-.45-3.82.94-4,0,2,0,3.83,1.67,5.68,1.14-10.92-1.83-23.21-1.62-34.43a1.45,1.45,0,0,1,1.07-.24c-1.78-2.63-.45-4.23-.85-6.39,3.39-2.43,1.92-7.51,4.36-9.59.63,1.31-1.58,3.36,1,3.07.21-1.9,0-3.94,1.76-5.33a2.35,2.35,0,0,0,2.48.81c.25-.56,0-1.29.25-1.88-1.33-1-3-1-4.39-1.65-.54-1.76-.72-3.4,0-4.73.22.32.35.92.71.82-1.7-4.24-.14-7.39,1.16-10.65.64.06,1.39-.22,1.79.59,0,5.44,1.92,10.33.49,15.14a4.86,4.86,0,0,1,1.77,1.19c.24,2.5,1,5.18.49,7.45,2.38-1.44-.67-3.85,1.18-5.33,0,0,1.16.34,1.53-.48,5,4.94,1,10.12,4.78,16,1.26-1.6.73-.81,2.36-.6-1.38-5.12-3.46-10.47-2.75-14.9,1.64,3.42,1.87,8.44,3.93,11.94.41-2.23-2.12-5.43-1.43-7.57-.13.3.25,1.75.83,1.66-.06-2.75-1.38-5.69-2-8.16-.45.11-.42.66-.71.35.55-1.9-1.5-4.35-2.74-7.21-1,.41.74,1.69-.82,1.9.24.92.81.72,1.07,1.54-1.54.9-.63,1.41-.36,2.24-1.65-.12-1.8-1.11-3.21-1.64-1.4-1.83-.87-4.24-1.55-6-.38-1-1.35-1.77-1.66-2.72-.72-2.11.5-4.81-1.79-6.5-.7-.48-1,1.17-1.77.59,1.44-1.75,3.58-.49,4.73.59.71-.32,1.48-.91,2-.71-.06-.9-1.36-1-.84-1.66,1.52.33,4.12-.49,3.32,1.89,2,0,4.55,1.22,6,.81a10.08,10.08,0,0,1-.49-4.49c.63.32,1.56-.34,2.13.1,0,.6-.86.9-.35,1.66,3,1.9,2.5,6.25,3.21,8.16,1.18.15.44-1.74,1.53-2.25,1,.54,1.67,2.12,2.38,3.54,2.59-.29,3.53,4.42,5.93,4.72-.4-1.78-2.33-2.08-2.14-3.66,1.41,1.53,2.56,3.79,4.39,4-1.64-4-12.37-9.86-8.89-14.19.75,1.08,2.19.11,3.2.47-.8-1.39-2-1.4-2.74-3.07,1.38-1,.61-2.78,1.57-3.94h2.11c.8,1.56,1.6,3.13,3,3,.74-.54-.75-1.83-.36-2.49a2.78,2.78,0,0,1,.71-.5H217c1.37.62,2.6,2.49,4.08,2.61-.33-.88-1.25-1.94-.93-2.61h1.42c.3.47.51,1.19.8,1.68V297.5h444.1V131.84Zm-190,37c.29-.65,2-.47,2.48.23C70.26,169.21,69.58,168.64,68.69,168.81ZM88.41,214c-1.81,1.06-3.08.57-4.61.83.59-1.68,3.25-1.58,4.13-3A3,3,0,0,1,88.41,214Zm-4-3.91a.72.72,0,0,1,.94.12c0-.59.92-1.85-.24-1.66a13.37,13.37,0,0,1,1.78-1.78c-1,1.52,2.69,3.31-.11,5.1a1.32,1.32,0,0,1-.6-.59c-.22,1.31-2.28,2-3.9,2.85C83.15,212.83,85.6,212.06,84.38,210.08Zm-4.7,13c-.55-.9,1-1.12,1.17-1.77-1.3-.32-2,.79-3.43,1.43-.63-1.7-.93-2.75-2.25-3.3.83-1.86,3.22-1.61,5.09-1.67a2.43,2.43,0,0,0,.93-1.66c2.72-.44,5.3-.52,7.93-.72.75,1.1.71,1.94,1.2,3C86.72,218.87,83.41,222.16,79.68,223.1Zm61-99.64c-.89-1.41-.33-2.34-.6-3.55C141.24,120,141.34,122.71,140.66,123.46Zm12.78-2.28c-.81.19-.74.68-1.29,1,.51,1,2.5,2.83,1.3,3.79a1.3,1.3,0,0,1-.71-1.43c-1,.61-1.24,1.06-2.24.83-.41-.73.2-1.12.7-1.53L149.77,121c-.92.09.2.86-.72,1-1.14-.63-1-1.57-1.9-2.59-.28.55.27,1.4.12,2-1.47-.81-2.06-.74-2.95-3-1.51.49-1.84,1.37-1.42,2.49-2.74-2.22-3.27-7.94-1.79-10.65-.53-2-2.06-4.37-2.26-6.26,1-.36,1.51.59,2.24.93.41,1.08,0,2.27,1.31,2.6.65-.18-1.25-.85,0-1.18l1.67,3.3c-.48.24-.63-.48-1.19,0,1.06,1.19,2.41,1.45,3.44,2.71.83-.3.69-.69,1.88-.37a2.36,2.36,0,0,1-.46,1.43c1.35,1.25,3.33.64,4.5,2.47.66-1.52,1.74-.58,3.07-.94-.56,1.1.75,2.07,1.42,2.83-.78.57-1.27.3-1.89.36-.25,1.46,2.68,3.22,1.8,4.73-1.35-.52-2.17-2.58-3.08-4.38C152.19,118.94,153.15,120.17,153.44,121.18Zm5.91,183.89c-.9.86-2.43-2-2.25-3.3,1-.55,1.48.71,2.24.94C159.84,303.55,158.5,304.78,159.36,305.08Zm2.38,7.7c.25.41,0,.65.25,1.07-.36.36-1.34-.2-1.2.6-.78.15,0-.74-.59-1.17C160.84,312.72,161.1,313.31,161.74,312.77ZM167,322c-.83.78-.14,2.05-.23,3.07-1.69.43-1.22,1.58-2.48,2.14-1.5-2.41-.8-5.25-3.09-6.74a1.48,1.48,0,0,1,.83-.71,6.41,6.41,0,0,1-1.67-4.5c2.44-.43,1.66-2.56,3.43-2.61.19-1.37-.63-3.1-1.19-4.72,1.32.41,1.85,3.17,3,4.13.76-.14.44-.64,1.06-.82a12.51,12.51,0,0,0-.48-2.73c2,1.87,4.64,7,2.27,8.64.49,1,1.28.57.83,1.65-.65.54-.78-.41-1.42.13-.94-1.37-.15-2.16-.48-3.32-.67-.08-.94,1.3-.34,2.25-.52.38-.74-.18-1.31.36,1.25,1.56,2.83,2.16,4.27,3.19.77,2.46.42,5.46-2.24,6.15C166.84,325.5,167.17,323.84,167,322Zm-1-196.46c.73-.37,1.26-1.34,2.13-1.07.43.74.08,1.21.71,2-1.41.65-1.28,1.81-2.24,2.6-.23-.27-.6-.15-.83-.47C165.91,127.62,166.62,126.8,166,125.54Zm2.25-2c.67-.41,1.25.42,1.06,1C168.77,124.7,168.49,124.12,168.25,123.53Zm1.48,221.65c-.35.1-.49-.49-.71-.81.65-.59.93,0,1.43-.12C170.93,344.79,169.24,344.63,169.73,345.18Zm.59-3c-2.14-1.6-1.68-4.57-1.2-6.5-1.12-2.54-1.15-4.72-1.43-7,1-.46,2-.93,2.13-1.67,1.49,1.95.57,4.8.84,7,.65-.12,1-2.05.47-3.2,1.88,1.42.59,3.48,1.78,5.33-.59.46-.68,1.07-1.3,1.54a3.12,3.12,0,0,1-.24-2.25C169.74,336.52,171.57,340.4,170.32,342.21ZM171,325.3c1.11-.51.81,1.28.83,1.66C170.38,327.08,171.26,326.26,171,325.3Zm1.38,36.91c.29.11.7-.17.94.12.1,1-.75,1.59.24,2.85C172.26,365.21,172.84,363.15,172.38,362.21Zm.8-10.76a1.55,1.55,0,0,1,.12,2.6c-.28-.55-.56-1.1-.84-1.65C173,352.2,173.33,351.89,173.18,351.45Zm3.94,15.5c-.6.59-.68-.31-.94-.71-.32,2.32-1,4.54-.94,7-1.58-2.1-.87-5.15-1.44-7.57,1.66,0,2-1.69,2.49-2.72.36-.08.58.22.93.11C177.34,364.4,177.82,365.87,177.12,366.95Zm-1-26.15c-.48.92.92,1.1,1.19,1.77-.17,4.55-.76,8.95-.93,13.49-.63-1.48-1.88-1.05-2.84-1.53a1.72,1.72,0,0,1,1.31-.37c-.24-2.71-.93-7.45-3.82-8.74a14.59,14.59,0,0,0,.23-5.45c.72-.36.83,1.08,1.55.7,1.79-.58,1.46-1.87,2.11-2.84-1.6-4.33-.61-7.82-.85-11.71,2.47,4.17,3.05,9.41,3.58,13.6C176.22,340,177.28,341.59,176.12,340.79Zm4.56-22.74c1.43,3-.07,5.11.37,7.81-.64.55-.91-.05-1.54.48a1,1,0,0,1-.6-1.2l-1.42.72c-1.78-4.17-.17-7.46-3.45-11.59-1,.9-.91,2.19-.58,3.54-1.49-2.07-.68-5.07-2.15-7.81,1.58-.21,2.78.73,4.37.47.26-.18,0-.53-.12-.83,1.57,1,2.16-2.4,3.66-3.31.67,1.1,1.77,1,2.25,2.72l-1,.47c1.7,3.25-1.08,5,1,8.39A1.36,1.36,0,0,0,180.69,318.06Zm-1.57-13.73c-.13-.49,1.07-.56.23-1.29,1,0,1.75.68,2.73.71C182,305.36,179.91,304.46,179.12,304.33Zm25.69-.16c-1.75-.65-1.9-2.51-3.32-4.24.78-.53,2.47-.76,1.77-1.78a7.71,7.71,0,0,0,2.09-.64h1.47c.16.65,0,1.36.71,1.46C206.3,300.59,206.51,302.71,204.81,304.16Zm22.55-208c-.57.33-.92,0-1.42.12-1.73,2.78-6.66,4.5-9.58,6.88-1,.35-1.46-.71-2.37-.59-3.27,3.76-7.43,2-10.64,3-.65.2-1.42,1-2.13,1.07-4.48.55-6.45-6.57-11-4.84-.94.27-1.57-.41-2.6.13-.48.36.61,1.25.24,1.66-2.14.66-1.74,2.17-2.49,3.31-.78.78-.91-.39-1.53-.11-.66,1.88,0,4.22-.11,6.27a14.75,14.75,0,0,0-8.5,5.46c-2,.47-3.66,1.19-4.62,2.62.54.21,1.26.51.48,1.54-.72.63-.8-.58-.71-.83a55.93,55.93,0,0,1-6.63,3.33c-.36-.64-1.52-.19-1.18-1.18-1.09.53-.54,1.83-2.14,1.65-.46-1.37-1.29-1.63-1.77-2.95-.34.26-.51,0-.83.12-1.35.93.59,3-1.41,3.67-.23-2.24,1-4,1.76-5.92-.57-2.62.72-4.62.23-7.22a17,17,0,0,0,3.66-3.31c-.23-.29-.69.09-1.06.22,1.05-1.56,1.73-3.23,3-4.74.31-.57-1.12-.85.22-1.3,1.25,0,.19,1.62.72,2.6,1.35,0,.59-2.63.11-3.32,4.27-4.56,8.57-9.12,15.13-12.93-.67-.78-1.66-.55-2.84.25,1.05-2.41,2-4.85,4.59-6.75a1.13,1.13,0,0,0,0-1.18c5-3.06,6.17-11.32,12.16-13.52,2.65-1,4.69.35,7.34.46.67-1.71-1.57-2.56-2.13-4.25-.55-.59-.69.53-1.19.6,0-5.51,5.54-1.37,8.63-2.27.34,2.09-.7,3.71-2.47,5.1.45.62,1.3,0,1.78.59.25-2,1.38-3.61,2.35-5.33,3.56.24,5.9-1.87,8.88-1.19.08.29-.18.25-.24.12-2.07.94-2.77,3.13-1.76,4.14,1.85,1.88,3.31-1.91,5.07-2.25-.26-.79-.88-.51-1.54-.12-.21-.59-.07-1.08-.6-1.78,2.33.11,5.72.21,6.29,3.66,1.31,1.41,3.76-.66,5.68-1.08,4.41,2.94,8.8,5.93,12.21,11.93A78.6,78.6,0,0,1,227.36,96.19Zm9-5.7c.5-.38.4,1.15,1.05.35,1-.33.12-1.28.59-1.77,3.91-1.66,7.79-3.27,10.18-.38-2.94,4.83-11.26,15.91-18.45,11C229.48,95.85,233.74,93.44,236.35,90.49Z"/>
        <path class="cls-1" d="M198.33,23.7c-1,.39-1.36,1-.82,1.9C198.46,25.19,199.1,24.68,198.33,23.7Z"/>
        <path class="cls-1" d="M190.2,37.56c-.32-1.34.24-3-1.18-4.13C186,34.41,189.2,36.74,190.2,37.56Z"/>
        <path class="cls-1" d="M198,37.19c-2.42,1.3-3.2,3.16-1.89,5.68C197.08,41.08,198.86,39.58,198,37.19Z"/>
        <path class="cls-1" d="M254.3,11.88c1-.65,1.13-1.6.35-2.84A1.51,1.51,0,0,0,254.3,11.88Z"/>
        <path class="cls-1" d="M195.77,43.35c-.2,1.79-1.86,4.12-.7,5.68C194.73,47.08,196.66,44.83,195.77,43.35Z"/>
        <path class="cls-1" d="M208.89,37.64c-1.22.37-1.15,1.19-.7,2.14C209.45,39.43,209.58,38,208.89,37.64Z"/>
        <path class="cls-1" d="M205.48,42c-.81.27-1,.74-.47,1.42C205.8,43.19,206,42.72,205.48,42Z"/>
        <path class="cls-1" d="M66.94,119.94c-1.73-3.33-4.58-5.8-7.48-3.65a25.26,25.26,0,0,0,1.78,3.55C63.24,119.59,64.6,121.22,66.94,119.94Z"/>
        <path class="cls-1" d="M184.43,53.79c-.83.25-1,.7-1.55,1.06.21.39.41.79.6,1.17C184.68,55.57,184.58,54.69,184.43,53.79Z"/>
        <path class="cls-1" d="M174.39,62.09c.8-.29.83-1.69-.13-1.42C174.4,61.17,173.81,61.44,174.39,62.09Z"/>
        <path class="cls-1" d="M247.95,30.46c2.47-1.35,3.73-3.89,2.83-5.56-1.56-2.85-5,1.79-5.44,3.91A3.48,3.48,0,0,0,247.95,30.46Z"/>
        <path class="cls-1" d="M123.2,89.29c-.29-.92-1-.68-1.66-.34l.47.94Z"/>
        <path class="cls-1" d="M259.89,23c1.62-.91,1.94-2.26.92-4C257.59,19.6,257.58,22.16,259.89,23Z"/>
        <path class="cls-1" d="M267.1,27.36c-.65-1.14,1.25-1.43.12-2.73-4.4,2.56-6.27,5.95-8.39,9.26C262,31.94,263.83,28.61,267.1,27.36Z"/>
        <path class="cls-1" d="M60,131.43c.74.73,1.52,1.38,2.61,1.06a5.55,5.55,0,0,0,.23-3.07C61.65,129.07,59.72,130.21,60,131.43Z"/>
        <path class="cls-1" d="M82.55,124.52a7.69,7.69,0,0,1-1.3-3.78c-.73.59-1.14.23-1.66.24C79.94,122.53,81,124.92,82.55,124.52Z"/>
        <path class="cls-1" d="M53.71,140.19c.66,2.3,3.12,3.65,4.74,4.73C56,153.37,69.29,154,66.38,146c-.76-.88-1.78-1-2.48-2a8.2,8.2,0,0,0-9.85-7.8C54.6,137.69,53.23,138.52,53.71,140.19Z"/>
        <path class="cls-1" d="M98.53,116.2c-.39-.41-.46-1.83-1.18-1.18C97.14,115.57,97.72,116.86,98.53,116.2Z"/>
        <path class="cls-1" d="M10.56,161.59c1.24-.48,4.13-.66,4.49-2.26C13.62,160.19,10.55,159.48,10.56,161.59Z"/>
        <path class="cls-1" d="M246.78,48.22A4.15,4.15,0,0,0,248,50.59c1.46,0,1.94-1.29,2.85-2-.64-.67-1.24-1.42-1.9-2C247.74,47,248.27,47.93,246.78,48.22Z"/>
        <path class="cls-1" d="M80.57,135.88a3.67,3.67,0,0,0-3.09-1.41C76.26,136.84,80.58,139.18,80.57,135.88Z"/>
        <path class="cls-1" d="M52.89,149.78c-1.21.32-1.64-1.81-2.95-1.17C49.82,149.78,52.24,151,52.89,149.78Z"/>
        <path class="cls-1" d="M181.07,88.34c-.25-.66-.72-.6-1.31-.23.16.32.32.63.48.95C180.71,88.89,180.63,88.54,181.07,88.34Z"/>
        <path class="cls-1" d="M71.71,144.77c.93-.27.67-1,.34-1.66-.6.26-1.16.53-.94,1.08C71.72,144.05,71,144.7,71.71,144.77Z"/>
        <path class="cls-1" d="M51.25,154.17c.57,1.22,1.57,1.21,2.6,1.05.19-.88-1-1.37-1.54-1.88A1.68,1.68,0,0,0,51.25,154.17Z"/>
        <path class="cls-1" d="M226.95,74.17c1.62-1.1,1.3-2.85,1-4.61C225.3,69.68,226,72.92,226.95,74.17Z"/>
        <path class="cls-1" d="M96.19,141.06c-.81-1.94-3.73-3.13-4.26-2C93.2,140.21,94.36,141.67,96.19,141.06Z"/>
        <path class="cls-1" d="M276.73,46.5a1.45,1.45,0,0,0-.71,2.14c.53-.36.71-.83,1.54-1.06C277.37,47,276.87,47.27,276.73,46.5Z"/>
        <path class="cls-1" d="M172.1,103.52c.2.59.07,1.07.59,1.77C174.55,105.1,173.29,102.57,172.1,103.52Z"/>
        <path class="cls-1" d="M196.94,98.14c2.26-.24,3.66-3,2.95-4.15C197.45,94.9,196.45,96.27,196.94,98.14Z"/>
        <path class="cls-1" d="M180.87,103.86l-1,.48c.48,1,1.12,1,1.67.34C181.4,104.2,181,104.29,180.87,103.86Z"/>
        <path class="cls-1" d="M173.31,111.8c-.83.25-1,.72-1.54,1.06-1.95-.5.79-2.7-1-2.48.56.84-1.06,1-.94,1.65.3-.09.45.26.6.59-.69.38-1.5,1.73-.47,2,1.28-1.69,3.42-.82,5-1.31C174.64,112.11,173.62,113,173.31,111.8Z"/>
        <path class="cls-1" d="M194.95,103c1.11-.28.72-1.07.23-1.89C194.06,101.39,194.45,102.17,194.95,103Z"/>
        <path class="cls-1" d="M302.19,57.11c-.08-.36.11-.63-.23-1.06-.6.27-1-.08-1.18.59A1,1,0,0,0,302.19,57.11Z"/>
        <path class="cls-1" d="M52,188.13a13,13,0,0,0-6.75.72c2,4.6,6.8,5.92,10.18,2.59C54.39,190.22,52.24,190.09,52,188.13Z"/>
        <path class="cls-1" d="M259.53,86.55c.38.89.13,1.07.83,1.65,1-.26,1-.84.71-1.54A1.13,1.13,0,0,0,259.53,86.55Z"/>
        <path class="cls-1" d="M234.75,123.87c.8-.09,1.89-.84,1.78-1.78C235.49,122.12,233.85,122.33,234.75,123.87Z"/>
        <path class="cls-1" d="M32.72,237.53c-.48.22-.63-.51-1.18,0-.28.83.57,1.29,1.3.83A1.23,1.23,0,0,1,32.72,237.53Z"/>
        <path class="cls-1" d="M36.15,237.28c-.15-.32-.31-.63-.48-.95-.61.25-.54.73-.59,1.18C35.44,237.43,35.71,237.63,36.15,237.28Z"/>
        <path class="cls-1" d="M68.43,226.08c-.33-.39-.39-1.58-1.07-.94C67.18,225.66,67.75,226.49,68.43,226.08Z"/>
        <path class="cls-1" d="M65.6,229.89l.48.94a5.75,5.75,0,0,0,1.78-.6C67.42,229.13,66.6,229.25,65.6,229.89Z"/>
        <path class="cls-1" d="M36.39,245.45c-.59.2-1.08.07-1.77.6.46,1.37,1.29,1.66,2.5.82C36.88,246.39,36.64,245.91,36.39,245.45Z"/>
        <path class="cls-1" d="M89.62,224c-.3-1.08-1-1-1.77-.59C88.14,224.51,88.82,224.47,89.62,224Z"/>
        <path class="cls-1" d="M61.83,238.29c.13,1.43-2.94,1.79-1.42,3.67.88-.09,1.36,1,2.38.59.41-.59.42-1.3,1.53-1.66C63.42,240,63.82,237.8,61.83,238.29Z"/>
        <path class="cls-1" d="M83.11,229.37a1.05,1.05,0,0,0-1.66-.35C81.73,230,82.35,229.88,83.11,229.37Z"/>
        <path class="cls-1" d="M36.89,253.49c1.13.16,3.35-.77,3.77-1.9C39.83,250.31,35.93,251.64,36.89,253.49Z"/>
        <path class="cls-1" d="M79.81,231c.51.62,1,1.31,1.77,1.17C81.07,231.59,80.57,230.92,79.81,231Z"/>
        <path class="cls-1" d="M59.36,247.53c-.85-1.44-2.78-.41-1.77,1.18C58.58,248.44,58.57,247.86,59.36,247.53Z"/>
        <path class="cls-1" d="M63.39,250.24c4.21-.82,6.35-5.56,10.77-5.71a5.66,5.66,0,0,1,2.11-2.25c-.72-2.3-2.87-1.34-2.85.25-3.28,1.2-5.71,5.86-9.33,3.8C62.84,247.29,62.87,248.68,63.39,250.24Z"/>
        <path class="cls-1" d="M56.42,255.23q0-.68.93-1.07c.46.33-.29,1.14.49,1-.23-1.39,1.58-2.11,1.19-3.55C56.58,249.31,52.36,256,56.42,255.23Z"/>
        <path class="cls-1" d="M80.89,243.22a2,2,0,0,0,1.89-.35C82.33,242,81.36,242.61,80.89,243.22Z"/>
        <path class="cls-1" d="M55.25,260.55c0,.71-.43,1.3.23,2.25.84-.25,1-.71,1.54-1.07C56.5,261.12,56,260.43,55.25,260.55Z"/>
        <path class="cls-1" d="M78.07,250.57c-1,.38-1.38,1-.83,1.89C78.32,252.09,78.87,251.55,78.07,250.57Z"/>
        <path class="cls-1" d="M67.34,268.1c.15,1.21,1.72.74,1.41-.11C68.26,268.11,67.9,267.77,67.34,268.1Z"/>
        <path class="cls-1" d="M60.37,276.05c-.33-.53-1.11.39-1.19.59C59.19,277.54,61.09,276.59,60.37,276.05Z"/>
        <path class="cls-1" d="M69.73,282.9c.1.29-.25.45-.59.59.23.66.71.61,1.3.23C70.17,283.11,70.52,282.76,69.73,282.9Z"/>
        <path class="cls-1" d="M65.37,291.31A12.93,12.93,0,0,0,67.85,288C65.94,285.72,61.94,290.14,65.37,291.31Z"/>
        <path class="cls-1" d="M65.14,294.38c1.44-.18,2.5-1.12,2-2.49C65.86,292,64,292.93,65.14,294.38Z"/>
        <path class="cls-1" d="M62.29,299.95c1.57.17,4-1.34,2.85-3.2C63.35,296.9,61.95,298.47,62.29,299.95Z"/>
        <path class="cls-1" d="M61.37,306.35c2.75-.84,6.75-2.5,5.32-5.34C63.26,300.35,61.76,303.82,61.37,306.35Z"/>
        <path class="cls-1" d="M81.12,297.9a3.93,3.93,0,0,0-1.65.83c.07,1.1,1,2.88,2,2.83C80.54,300.08,82.35,299.49,81.12,297.9Z"/>
        <path class="cls-1" d="M82,327.36c1.29-.76.76-3.16-.25-4C82.08,324.76,80.86,325.68,82,327.36Z"/>
        <path class="cls-1" d="M140.65,300.86c.27.42,0,.66.24,1.07.79-.26.94-.74.48-1.42Z"/>
        <path class="cls-1" d="M134.93,339c0-2.1.44-4.05-.24-6.39C133,333.94,133.92,338,134.93,339Z"/>
        <path class="cls-1" d="M202.79,299.56c.4.66-.18,1,.24,1.67.91-.41,1.22,1,2.11.7C205.19,300.75,203.7,299.74,202.79,299.56Z"/>
        <path class="cls-1" d="M190.5,306.33c-.06.58.94,2,1.89,1.41C192,306.61,191.34,306.14,190.5,306.33Z"/>
        <path class="cls-1" d="M107.38,350.15a4.07,4.07,0,0,0,2.13-.47c-.16-.31-.31-.62-.47-.94C108.23,348.53,107.1,349.4,107.38,350.15Z"/>
        <path class="cls-1" d="M127.25,342c-.4-1-.88-1.74-1.67-1.54C125.1,341.26,126.06,342.78,127.25,342Z"/>
        <path class="cls-1" d="M103.73,357.62c.28.55-.07.91.47,1.53l1-.47C104.79,358,104.51,357.05,103.73,357.62Z"/>
        <path class="cls-1" d="M158.82,331.13c.37.66-.3,1.85.84,1.65C159.19,332.26,159.91,330.61,158.82,331.13Z"/>
        <path class="cls-1" d="M222.42,300.46a2.43,2.43,0,0,0-.82,0l.82.74Z"/>
        <path class="cls-1" d="M159.3,334.43c.55,1.32-.11,3.24,1.19,4.15C159.69,337.22,161.07,334.85,159.3,334.43Z"/>
        <path class="cls-1" d="M154.21,337.28c.26.81.84.62,1.08,1.53C157,338.24,155.23,336.41,154.21,337.28Z"/>
        <path class="cls-1" d="M203.18,314.47c-.46.46-.42,2.08.23,2.24C203.75,316.23,204,314.71,203.18,314.47Z"/>
        <path class="cls-1" d="M138.73,347.73c-.28.89.08,2,0,3C140.06,350.27,139.77,348.28,138.73,347.73Z"/>
        <path class="cls-1" d="M159.9,339.17a1.68,1.68,0,0,0,.36,1.3C161.18,340.44,160.72,338.54,159.9,339.17Z"/>
        <path class="cls-1" d="M191.58,326.8c1.05,1.4-.08,3.13.73,3.78C192.77,329.69,193.23,327.12,191.58,326.8Z"/>
        <path class="cls-1" d="M182.26,331.79c-.84.58-.67,1.49-.59,2.37A2,2,0,0,0,182.26,331.79Z"/>
        <path class="cls-1" d="M206.26,320.62c-1.19.28-.89,2.78.47,2.13C206.07,321.87,207.08,321.55,206.26,320.62Z"/>
        <path class="cls-1" d="M206.85,323c.28,1.47,2,3.47,3,4.73-.19-1.51-1.52-3.38-2.25-5.08Z"/>
        <path class="cls-1" d="M125.87,364c-.11.64,0,1.9.83,2.25l.94-.48C127.78,364.86,126.85,363.29,125.87,364Z"/>
        <path class="cls-1" d="M191.13,333c.58,1-.14,1.54.71,2.6C192.39,335.13,192.33,332.69,191.13,333Z"/>
        <path class="cls-1" d="M145.14,357.54c-.08-.13-.18-.26-.35-.12.58,2.38-.12,5.09,1.91,7.34.2,2.43.41,5.92,1.67,8-.6-5.32.31-10.15-1.82-16C145.81,356.33,145.86,358.1,145.14,357.54Z"/>
        <path class="cls-1" d="M225.89,316.67c.74,1.73,1.56,3.2,3.19,2.25a4.14,4.14,0,0,0-.59-2.37A12.65,12.65,0,0,0,225.89,316.67Z"/>
        <path class="cls-1" d="M241.15,311.67c.69.76-.7.82-.13,1.54.31,1.09,1,.89,1.44,1.66-.34,1.32-2.78,2-1.3,3.91,3.53,0,.92-3.63,2.24-5C242.83,312.56,242.29,311.19,241.15,311.67Z"/>
        <path class="cls-1" d="M220.94,323.31a5,5,0,0,0,2.24,2.72c.69-.36.62-1,.72-1.54C222.57,325.12,222.33,322.48,220.94,323.31Z"/>
        <path class="cls-1" d="M202.38,335.89a5.46,5.46,0,0,0-.84-2.25l-.71.35C201.33,334.71,201.55,336.2,202.38,335.89Z"/>
        <path class="cls-1" d="M211.95,331.37c.45.87.88,1.73,1.32,2.6C214.12,333.57,212.62,331.06,211.95,331.37Z"/>
        <path class="cls-1" d="M236.9,319.72c.74,1.35.62,2.82,2.13,2.48.16-1-.59-1.84-1.43-2.84Z"/>
        <path class="cls-1" d="M201.2,338.26c.56.79.25,2.43,1.44,2.24C201.85,339.8,202.49,337.88,201.2,338.26Z"/>
        <path class="cls-1" d="M209.61,339.08c2.29-.87.72-3.22-.26-4.62C207.3,335.4,208.35,337.58,209.61,339.08Z"/>
        <path class="cls-1" d="M154.26,363.92c-.27-1-.9-.86-1.65-.35C153,364.78,153.75,364.55,154.26,363.92Z"/>
        <path class="cls-1" d="M213.86,336.34c-.2-.4-.09-2.12-1.07-1.54C212.62,335.28,213.17,336.69,213.86,336.34Z"/>
        <path class="cls-1" d="M165.15,360.22c.43,1.19,0,2.11.48,3.32C166.45,363,166.41,360.19,165.15,360.22Z"/>
        <path class="cls-1" d="M201.1,343.35c.29.9.81,1.11,1.42,1.06C202.22,343.51,201.7,343.29,201.1,343.35Z"/>
        <path class="cls-1" d="M157.85,379.29a2.93,2.93,0,0,0,1.66-1.42C158.47,375.86,156.8,377.55,157.85,379.29Z"/>
        <path class="cls-1" d="M166,373.12a4.23,4.23,0,0,0,.6,3C167.69,375.61,167.2,373.11,166,373.12Z"/>
        <path class="cls-1" d="M181.49,365.64c.08.72.44,2.12,1.42,1.66.76-.55-.31-1.57-.72-2Z"/>
        <path class="cls-1" d="M204.69,370.56c-.27.82.58,1.29,1.3.82C205.76,370.48,205.26,370.46,204.69,370.56Z"/>
        <path class="cls-1" d="M174.9,386.12c.22.59,0,1.21.71,1.42C176.74,387.31,175.76,385.36,174.9,386.12Z"/>
        <path class="cls-1" d="M153.74,397.06c-.26.86.69,1.39,1.07,2.12.72-.55.69-1.35.36-2.25C154.66,397.06,154.39,396.47,153.74,397.06Z"/>
        <path class="cls-1" d="M213,372.31c.69,1.49.38,3.67,1.79,4.74C214.57,375.55,214.54,373.13,213,372.31Z"/>
        <path class="cls-1" d="M178,393.46c-.25-.75.72-2.12-.36-2.49C177.89,391.72,176.92,393.09,178,393.46Z"/>
        <path class="cls-1" d="M162.86,398.69c.27,1.87-1.24,4.19.24,5.8C162.92,402.65,164.22,400.27,162.86,398.69Z"/>
        <path class="cls-1" d="M177.52,394.88c0,6.11-1.25,12.85.63,18.93.19-2.83-.92-6.09.46-8.53C176.82,401.48,179,397.92,177.52,394.88Z"/>
        <path class="cls-1" d="M181.55,393.45a1.51,1.51,0,0,0,.71.82c.79-.26.5-.88.12-1.54C181.9,392.92,182,393.27,181.55,393.45Z"/>
        <path class="cls-1" d="M214.65,378c-.19.64.54,1.84,1.19,1.77C215.09,379.16,215.46,377.39,214.65,378Z"/>
        <path class="cls-1" d="M161.81,410.76c1.68-1,.84-4.81.35-5.21A8.77,8.77,0,0,0,161.81,410.76Z"/>
        <path class="cls-1" d="M174.7,403.4c-.5-.66-.91-1.64-1.78-1.17C172.7,403.19,173.91,403.63,174.7,403.4Z"/>
        <path class="cls-1" d="M173.42,416.77c1.54-2.11,2-4.61.22-7.81C171.49,411.41,171.79,413.75,173.42,416.77Z"/>
        <path class="cls-1" d="M161.47,415.37c0,1.44-1.62,2.36-.22,4.28.41-.28.64,0,1.05-.25C162.48,418.37,163.19,415.78,161.47,415.37Z"/>
        <path class="cls-1" d="M220.23,390.29c1.13,1.62,0,3.12,1.2,4.14C222.15,393.57,221.6,390.58,220.23,390.29Z"/>
        <path class="cls-1" d="M221.43,395c.73,1.1.11,1.74.83,2.85C223,397.44,222.6,394.8,221.43,395Z"/>
        <path class="cls-1" d="M177.21,420.8c.74,1.23-.65,1.75,0,3C178,423.16,178.32,421.37,177.21,420.8Z"/>
        <path class="cls-1" d="M164.93,430.52c-.17.47.28,1.15.6,1.77,1-.4,1.06-1.1.47-2C165.57,430.56,165.33,430.28,164.93,430.52Z"/>
        <path class="cls-1" d="M176.3,428.37c0,2.32,0,4.61-.11,6.86l1.42-.71C176.61,432.56,179.41,429.1,176.3,428.37Z"/>
        <path class="cls-1" d="M193.57,427.39c.37.52-.19.73.35,1.3.69-.3,1.3-.62.82-1.3A1.1,1.1,0,0,0,193.57,427.39Z"/>
        <path class="cls-1" d="M176.44,445.76c.07.36-.11.63.24,1.06.92-.22.92-.74.83-1.3C177.09,445.8,176.85,445.52,176.44,445.76Z"/>
        <path class="cls-1" d="M272.15,5.57c.91-.55.38-1.58,1.65-2a1.66,1.66,0,0,0,.36,1.3c.7-.63.23-1.64,1.65-2A7.45,7.45,0,0,0,274.39,0a4.86,4.86,0,0,0-2.84,5.57C271.44,5.17,271.93,5.34,272.15,5.57Z"/>
        <path class="cls-1" d="M257.77,33.52c-1.49,1.95-5.05,3.19-5.91,5.34C254.1,37.31,257.92,35.23,257.77,33.52Z"/>
        <path class="cls-1" d="M207.59,338c-1.56-1.06-.73-2.94-.84-4.61-2.29-2.78-1.11-6.71-3.57-7.7.78-1.87-1.68-4.55-1.79-7.09-.58,1.61-.75,3.73,1.07,5.08-.81.26-.76.8-1.18,1.19.25,1,1.78,1.14.95,1.89-.17-.67-.53-.8-1.07-.35,0,1.81,1.89,2.51,2.74,3.67.07,4.3,2.43,9.34,3.82,14.06a1.48,1.48,0,0,1-2-.46c.47-.24.63.49,1.18,0-3.21-3.54-1.32-7.76-4.16-11.23-.12-.5.82-.65.24-1.3-.51.13-.65-.82-1.3-.23,1,1.32.3,2.46,1.78,4.14-.68,3.34,1.1,8.45,3.38,12.67-.29-.93.71-1.43,1.37-2,1.82,3.3,2.36,7.23,3.69,9.69-1.28-5.54-2-12.34-5.12-17.26A1.23,1.23,0,0,1,207.59,338Z"/>
        <path class="cls-1" d="M188.64,332.72c-.15.68.08,2.51.48,2.72C189.25,334.75,189.71,333.16,188.64,332.72Z"/>
        <path class="cls-1" d="M170.17,385.54c.41-.77.21-3.67-1.32-3.79-.27,2-1.08,6.75,1.91,7.33C170.82,388,171.54,386.53,170.17,385.54Z"/>
      </g>
      <g>
        <path class="cls-1" d="M234.73,303.15h18.6a16.71,16.71,0,0,1,7.68,1.54,12.78,12.78,0,0,1,4.61,3.83,13.21,13.21,0,0,1,2.22,5,25.17,25.17,0,0,1,.57,5.11,21.91,21.91,0,0,1-.86,6.29,12.19,12.19,0,0,1-2.82,4.94,13.1,13.1,0,0,1-5.08,3.22,22.26,22.26,0,0,1-7.61,1.14h-5.3v20h-12Zm12,22.25H250a7,7,0,0,0,2.94-.54,4.65,4.65,0,0,0,2.75-3.44,12.61,12.61,0,0,0,0-5.22,5.84,5.84,0,0,0-1-2.18,4.6,4.6,0,0,0-1.89-1.47,7.57,7.57,0,0,0-3-.53h-3.08Z"/>
        <path class="cls-1" d="M274.51,303.15h12v19.1h9.6v-19.1h12v51.07h-12V332.4h-9.6v21.82h-12Z"/>
        <path class="cls-1" d="M350.32,328.69c0,3.53-.15,6.9-.43,10.12a24.5,24.5,0,0,1-2.19,8.47,13.38,13.38,0,0,1-5.35,5.79q-3.61,2.15-10,2.15a20.5,20.5,0,0,1-9.47-1.86,13,13,0,0,1-5.44-5.33,23,23,0,0,1-2.46-8.37,105.62,105.62,0,0,1,0-22,23,23,0,0,1,2.46-8.37,13,13,0,0,1,5.44-5.33,20.49,20.49,0,0,1,9.47-1.86q6.38,0,10,2.14a13.4,13.4,0,0,1,5.35,5.79,24.53,24.53,0,0,1,2.19,8.47C350.17,321.78,350.32,325.16,350.32,328.69Zm-23.47,0q0,5.3.19,8.84a27.48,27.48,0,0,0,.75,5.68,6,6,0,0,0,1.65,3.08,4.2,4.2,0,0,0,2.86.93,4.37,4.37,0,0,0,2.9-.93,6.07,6.07,0,0,0,1.72-3.08,26.75,26.75,0,0,0,.78-5.68q.18-3.54.19-8.84t-.19-8.8a27,27,0,0,0-.78-5.72,6.09,6.09,0,0,0-1.72-3.07,4.37,4.37,0,0,0-2.9-.93,4.2,4.2,0,0,0-2.86.93,6,6,0,0,0-1.65,3.07,27.74,27.74,0,0,0-.75,5.72Q326.85,323.46,326.85,328.69Z"/>
        <path class="cls-1" d="M362.77,312.88H352v-9.73h33.47v9.73H374.78v41.34h-12Z"/>
        <path class="cls-1" d="M423.13,328.69q0,5.3-.43,10.12a24.33,24.33,0,0,1-2.17,8.47,13.4,13.4,0,0,1-5.37,5.79c-2.41,1.43-5.74,2.15-10,2.15a20.49,20.49,0,0,1-9.47-1.86,12.84,12.84,0,0,1-5.44-5.33,22.79,22.79,0,0,1-2.47-8.37,106.67,106.67,0,0,1,0-22,22.79,22.79,0,0,1,2.47-8.37A12.83,12.83,0,0,1,395.7,304a20.49,20.49,0,0,1,9.47-1.86c4.24,0,7.57.71,10,2.14a13.42,13.42,0,0,1,5.37,5.79,24.35,24.35,0,0,1,2.17,8.47Q423.13,323.39,423.13,328.69Zm-23.46,0q0,5.3.17,8.84a28,28,0,0,0,.76,5.68,6,6,0,0,0,1.64,3.08,4.2,4.2,0,0,0,2.87.93,4.41,4.41,0,0,0,2.9-.93,6.14,6.14,0,0,0,1.7-3.08,26.29,26.29,0,0,0,.79-5.68q.18-3.54.18-8.84t-.18-8.8a26.54,26.54,0,0,0-.79-5.72,6.15,6.15,0,0,0-1.7-3.07,4.4,4.4,0,0,0-2.9-.93,4.2,4.2,0,0,0-2.87.93,6,6,0,0,0-1.64,3.07,28.3,28.3,0,0,0-.76,5.72Q399.67,323.46,399.67,328.69Z"/>
        <path class="cls-1" d="M451,318.67c0-.81,0-1.72-.14-2.72a11.6,11.6,0,0,0-.6-2.79,5.28,5.28,0,0,0-1.44-2.15,3.81,3.81,0,0,0-2.62-.86,4.13,4.13,0,0,0-2.92,1,6.59,6.59,0,0,0-1.65,3.22,29.36,29.36,0,0,0-.74,5.76q-.19,3.54-.19,8.62t.19,8.76a26,26,0,0,0,.78,5.68,6.14,6.14,0,0,0,1.69,3.08,4.18,4.18,0,0,0,2.85.93,4.34,4.34,0,0,0,4.3-2.69q1.22-2.68,1.22-8v-1.64h-5.65v-8h16.8v27.39h-8.23l-.27-4.86h-.14a8.52,8.52,0,0,1-1.9,2.86,9.31,9.31,0,0,1-2.61,1.79,12.83,12.83,0,0,1-3.12.93,20.32,20.32,0,0,1-3.4.29,14.93,14.93,0,0,1-7.72-1.75,11.74,11.74,0,0,1-4.54-5,24.23,24.23,0,0,1-2.15-8,98.11,98.11,0,0,1-.54-10.73q0-6.29.43-11.37A23.61,23.61,0,0,1,431,309.7a12.73,12.73,0,0,1,5.47-5.58c2.43-1.31,5.76-2,10-2A22.89,22.89,0,0,1,453,303a14.13,14.13,0,0,1,4.51,2.18,11,11,0,0,1,2.83,3.08,14.13,14.13,0,0,1,1.54,3.57,18.8,18.8,0,0,1,.61,3.65c.06,1.2.1,2.26.1,3.22Z"/>
        <path class="cls-1" d="M469.2,303.15h20.16a16.53,16.53,0,0,1,6.47,1.11,11.41,11.41,0,0,1,4.23,2.93,11.07,11.07,0,0,1,2.32,4.22,17.5,17.5,0,0,1,.72,5c0,3.72-.72,6.56-2.14,8.51a10.58,10.58,0,0,1-6.44,3.93V329a11.45,11.45,0,0,1,4.51,1.5,6.71,6.71,0,0,1,2.43,2.72,11.55,11.55,0,0,1,1,3.79q.21,2.14.28,4.72c0,2.53.12,4.53.22,6a25.18,25.18,0,0,0,.39,3.4,3.9,3.9,0,0,0,.65,1.65,2.74,2.74,0,0,0,1,.75v.64H492.08a10.2,10.2,0,0,1-1-3.65,57.86,57.86,0,0,1-.29-6.73,49,49,0,0,0-.24-5.4,10.75,10.75,0,0,0-.83-3.29,3.23,3.23,0,0,0-1.54-1.61,5.92,5.92,0,0,0-2.4-.43h-4.57v21.1h-12Zm12,21.53h3.71a6.6,6.6,0,0,0,3-.61,4.92,4.92,0,0,0,1.89-1.57,6.09,6.09,0,0,0,1-2.15,10,10,0,0,0,.29-2.32,7.64,7.64,0,0,0-1.32-4.65c-.89-1.19-2.52-1.79-4.9-1.79h-3.64Z"/>
        <path class="cls-1" d="M519.68,303.15h15l12.73,51.07H535l-1.86-9.73H520.9l-1.79,9.73H506.67Zm7.3,9.3h-.14l-4.22,22.75h8.73Z"/>
        <path class="cls-1" d="M551.3,303.15h18.59a16.79,16.79,0,0,1,7.7,1.54,12.82,12.82,0,0,1,4.6,3.83,13.13,13.13,0,0,1,2.21,5,25.16,25.16,0,0,1,.57,5.11,22,22,0,0,1-.85,6.29,12.1,12.1,0,0,1-2.83,4.94,13,13,0,0,1-5.08,3.22,22.22,22.22,0,0,1-7.62,1.14h-5.29v20h-12Zm12,22.25h3.29a6.91,6.91,0,0,0,2.93-.54,4.7,4.7,0,0,0,2.76-3.44,12.26,12.26,0,0,0,.25-2.47,12.57,12.57,0,0,0-.28-2.75,6.17,6.17,0,0,0-1-2.18,4.66,4.66,0,0,0-1.9-1.47,7.53,7.53,0,0,0-3-.53h-3.08Z"/>
        <path class="cls-1" d="M591.07,303.15h12v19.1h9.58v-19.1h12v51.07h-12V332.4h-9.58v21.82h-12Z"/>
        <path class="cls-1" d="M641.56,334.12l-12.95-31h13.3l5.73,19h.14l5.87-19h12.88l-12.95,31v20.1h-12Z"/>
      </g>
      <g>
        <path class="cls-2" d="M130.86,143.21h22.82v62.25h.39l43.22-62.25h25L181.1,203.45l45.62,82.66H200.91l-34.62-64.25-12.61,18v46.24H130.86Z"/>
        <path class="cls-2" d="M234.73,143.21H312v19.22H257.56v39.63H308.8v19.2H257.56v45.65h56v19.2H234.73Z"/>
        <path class="cls-2" d="M330,143.21h22.83v142.9H330Z"/>
        <path class="cls-2" d="M372.83,143.21h22.81v123.7h55.25v19.2H372.83Z"/>
        <path class="cls-2" d="M464.29,143.21h77.26v19.22H487.1v39.63h51.24v19.2H487.1v45.65h56v19.2H464.29Z"/>
        <path class="cls-2" d="M560.54,143.21h27.84L629.8,249.69h.39V143.21h21.63v142.9H624L582.57,176.85h-.39V286.12H560.54Z"/>
      </g>
    </g>
  </g>
</svg>
